<svg width="69" height="34" viewBox="0 0 69 34" fill="none" xmlns="http://www.w3.org/2000/svg">
<path d="M20.1837 33.9985C26.8408 34.1373 28.8592 24.6894 29.0362 19.9481C26.4867 28.413 20.8919 30.4136 18.4132 30.3558H3.80658V3.46923C25.4067 2.68866 27.3543 2.68866 31.1608 13.7035C33.641 20.8802 36.0297 28.2743 41.2527 33.9985C43.6606 31.9169 48.2757 23.1282 50.2823 18.9941C50.7072 22.3939 55.8298 30.0667 58.3381 33.4781C68.607 23.9724 69.5807 7.19866 68.784 0L65.243 2.68866C66.3053 15.386 61.4954 25.0363 58.9577 28.2743C54.921 24.9438 51.138 12.3736 49.7511 6.50481C48.5472 15.8024 43.5839 24.8917 41.2527 28.2743C39.1281 25.7591 37.092 21.7694 33.9051 11.3617C31.1608 2.39955 26.3805 0 19.387 0H0V33.9985C3.95412 33.9407 13.5266 33.8597 20.1837 33.9985Z" fill="url(#paint0_radial_2845_1406)"/>
<defs>
<radialGradient id="paint0_radial_2845_1406" cx="0" cy="0" r="1" gradientUnits="userSpaceOnUse" gradientTransform="translate(34.5 17) rotate(89.9294) scale(20.1208 40.8334)">
<stop stop-color="#CBEAF2"/>
<stop offset="1" stop-color="#2EAFB8"/>
</radialGradient>
</defs>
</svg>
