<svg width="390" height="320" viewBox="0 0 390 320" fill="none" xmlns="http://www.w3.org/2000/svg">
<path d="M114 196C151.6 196.8 163 142.333 164 115C149.6 163.8 118 175.333 104 175H21.5V20C143.5 15.5 154.5 15.5 176 79C190.008 120.373 203.5 163 233 196C246.6 184 272.667 133.333 284 109.5C286.4 129.1 315.333 173.333 329.5 193C387.5 138.2 393 41.5 388.5 0L368.5 15.5C374.5 88.7 347.333 144.333 333 163C310.2 143.8 288.833 71.3333 281 37.5C274.2 91.1 246.167 143.5 233 163C221 148.5 209.5 125.5 191.5 65.5C176 13.8333 149 0 109.5 0H0V196C22.3333 195.667 76.4 195.2 114 196Z" fill="url(#paint0_radial_2933_811)"/>
<g clip-path="url(#clip0_2933_811)">
<mask id="mask0_2933_811" style="mask-type:luminance" maskUnits="userSpaceOnUse" x="0" y="219" width="389" height="101">
<path d="M0 219H389V320H0V219Z" fill="white"/>
</mask>
<g mask="url(#mask0_2933_811)">
<path fill-rule="evenodd" clip-rule="evenodd" d="M0 224.665H32.3616C40.4797 224.665 47.6839 226.64 53.9742 230.59C60.2629 234.539 65.1445 240.082 68.6187 247.219C72.093 254.355 73.8302 262.546 73.8302 271.793C73.8302 281.039 72.093 289.231 68.6187 296.368C65.1445 303.504 60.2629 309.047 53.9742 312.997C47.6839 316.947 40.4797 318.922 32.3616 318.922H0L0 224.665ZM31.7048 307.206C37.9201 307.206 43.3864 305.725 48.1037 302.764C52.8211 299.802 56.4595 295.65 59.0191 290.307C61.5787 284.967 62.8585 278.795 62.8585 271.793C62.8585 264.792 61.5787 258.62 59.0191 253.278C56.4595 247.937 52.8211 243.786 48.1037 240.824C43.3864 237.861 37.9201 236.379 31.7048 236.379H10.9694V307.206H31.7048ZM85.3506 276.371H114.86V287.548H85.3506V276.371ZM240.798 224.665V281.353C240.798 294.101 238.22 303.728 233.065 310.235C227.908 316.744 220.54 319.999 210.96 319.999C205.328 319.999 200.373 318.765 196.095 316.296C191.817 313.828 188.544 310.439 186.277 306.13C183.936 310.439 180.682 313.828 176.513 316.296C172.345 318.765 167.408 319.999 161.702 319.999C152.122 319.999 144.772 316.744 139.653 310.235C134.534 303.728 131.974 294.101 131.974 281.353V224.665H142.944V280.95C142.944 298.993 149.197 308.015 161.702 308.015C167.772 308.015 172.489 305.816 175.854 301.417C179.219 297.018 180.901 290.196 180.901 280.95V224.665H191.871V280.95C191.871 290.196 193.534 297.018 196.862 301.417C200.189 305.816 204.888 308.015 210.96 308.015C223.539 308.015 229.828 298.993 229.828 280.95V224.665H240.798ZM287.86 308.419C294.807 308.419 300.402 305.546 304.644 299.801L310.348 308.149C307.788 311.919 304.552 314.792 300.64 316.767C296.726 318.742 292.356 319.729 287.529 319.729C281.386 319.729 275.938 318.181 271.184 315.084C266.431 311.987 262.756 307.656 260.159 302.09C257.563 296.525 256.265 290.241 256.265 283.239C256.265 276.326 257.527 270.087 260.051 264.521C262.573 258.956 266.046 254.625 270.471 251.528C274.896 248.431 279.888 246.883 285.447 246.883C290.711 246.883 295.501 248.341 299.817 251.258C304.132 254.175 307.57 258.282 310.129 263.578C312.689 268.875 314.006 274.979 314.079 281.893L267.894 292.933C269.356 297.87 271.824 301.685 275.298 304.38C278.772 307.072 282.96 308.419 287.86 308.419ZM285.447 257.789C281.789 257.789 278.516 258.822 275.627 260.886C272.739 262.95 270.49 265.845 268.881 269.57C267.272 273.296 266.468 277.628 266.468 282.566V283.912L303.656 275.295C302.705 270.087 300.585 265.868 297.293 262.636C294.002 259.405 290.053 257.789 285.447 257.789ZM359.605 246.883C365.236 246.883 370.281 248.409 374.742 251.461C379.205 254.512 382.697 258.775 385.219 264.252C387.743 269.728 389.004 276.057 389.004 283.239C389.004 290.42 387.743 296.77 385.219 302.291C382.697 307.812 379.205 312.098 374.742 315.151C370.281 318.203 365.236 319.729 359.605 319.729C355.29 319.729 351.34 318.697 347.756 316.633C344.173 314.567 341.21 311.56 338.87 307.61V318.922H328.778V219.008H339.311V258.327C341.65 254.557 344.574 251.707 348.085 249.778C351.596 247.848 355.437 246.883 359.605 246.883ZM358.726 308.419C362.456 308.419 365.802 307.364 368.764 305.253C371.727 303.145 374.068 300.182 375.786 296.366C377.504 292.551 378.363 288.176 378.363 283.239C378.363 278.301 377.504 273.924 375.786 270.11C374.068 266.295 371.727 263.355 368.764 261.289C365.802 259.225 362.456 258.193 358.726 258.193C355.07 258.193 351.743 259.225 348.744 261.289C345.745 263.355 343.405 266.295 341.724 270.11C340.042 273.924 339.2 278.301 339.2 283.239C339.2 288.176 340.042 292.551 341.724 296.366C343.405 300.182 345.745 303.145 348.744 305.253C351.743 307.364 355.07 308.419 358.726 308.419Z" fill="#34B1BF"/>
</g>
</g>
<defs>
<radialGradient id="paint0_radial_2933_811" cx="0" cy="0" r="1" gradientUnits="userSpaceOnUse" gradientTransform="translate(194.86 98.0044) rotate(89.9308) scale(115.996 230.632)">
<stop stop-color="#CBEAF2"/>
<stop offset="1" stop-color="#2EAFB8"/>
</radialGradient>
<clipPath id="clip0_2933_811">
<rect width="389" height="101" fill="white" transform="translate(0 219)"/>
</clipPath>
</defs>
</svg>
