<svg width="52" height="52" viewBox="0 0 52 52" fill="none" xmlns="http://www.w3.org/2000/svg">
<path d="M18.7051 49.2676C18.7245 49.2676 18.7442 49.2649 18.7666 49.2568C18.7775 49.2529 18.7933 49.2462 18.8135 49.2344L18.8887 49.1797L45.6582 26.3242V26.3232C45.7438 26.2498 45.8008 26.1357 45.8008 26.001C45.8008 25.8665 45.7445 25.7522 45.6592 25.6787L18.8887 2.82227L18.8877 2.82129C18.8207 2.76394 18.7748 2.74647 18.7539 2.74023C18.7316 2.73363 18.7094 2.73196 18.6836 2.73438C18.655 2.73711 18.6224 2.74518 18.5898 2.75781C18.5576 2.77037 18.5355 2.78385 18.5303 2.78711L18.5234 2.79102L18.5156 2.79492L18.4658 2.83105C18.4343 2.85778 18.4071 2.88942 18.3857 2.9248L18.3584 2.98047C18.3275 3.05782 18.3226 3.14331 18.3447 3.22363L18.3486 3.2373L18.3525 3.25195L23.6689 25.0059C23.8087 25.5758 23.8265 26.1733 23.7217 26.75L23.6689 26.9961L18.3525 48.75L18.3486 48.7646L18.3447 48.7783L18.333 48.8389C18.3286 48.88 18.3309 48.9216 18.3398 48.9619L18.3584 49.0215C18.3817 49.0795 18.4186 49.1309 18.4658 49.1709L18.5166 49.207L18.5254 49.2129C18.5331 49.2176 18.562 49.2331 18.6016 49.2471C18.6411 49.261 18.6765 49.2676 18.7051 49.2676Z" stroke="white" stroke-width="2"/>
<path d="M10.4004 30.2012C12.7199 30.2011 14.6006 28.3205 14.6006 26.001C14.6005 23.6815 12.7198 21.8009 10.4004 21.8008C8.08086 21.8008 6.2003 23.6815 6.2002 26.001C6.2002 28.3206 8.08079 30.2012 10.4004 30.2012Z" stroke="white" stroke-width="2"/>
</svg>
