<svg width="200" height="200" viewBox="0 0 200 200" fill="none" xmlns="http://www.w3.org/2000/svg">
<circle cx="100" cy="100" r="100" fill="#002935"/>
<circle cx="100" cy="100" r="61.5" stroke="white" stroke-opacity="0.2"/>
<path d="M105.172 26.2812H101.876V16.0994H105.276C106.274 16.0994 107.131 16.3033 107.847 16.7109C108.563 17.1153 109.111 17.697 109.492 18.456C109.877 19.2116 110.069 20.1181 110.069 21.1754C110.069 22.236 109.875 23.1475 109.487 23.9098C109.103 24.6721 108.546 25.2588 107.817 25.6697C107.088 26.0774 106.206 26.2812 105.172 26.2812ZM103.412 24.9389H105.087C105.863 24.9389 106.508 24.7931 107.021 24.5014C107.535 24.2064 107.92 23.7805 108.175 23.2237C108.43 22.6636 108.558 21.9808 108.558 21.1754C108.558 20.3767 108.43 19.6989 108.175 19.142C107.923 18.5852 107.547 18.1626 107.046 17.8743C106.546 17.5859 105.924 17.4418 105.182 17.4418H103.412V24.9389Z" fill="white"/>
<path d="M112.695 26.9098L114.052 16.8188L120.379 17.6696L120.203 18.9803L115.399 18.3342L114.985 21.4088L119.459 22.0105L119.283 23.3162L114.81 22.7145L114.394 25.8039L119.257 26.4579L119.081 27.7686L112.695 26.9098Z" fill="white"/>
<path d="M124.854 18.9675L125.396 27.7141L125.507 27.7443L130.431 20.495L132.032 20.9337L125.808 29.7857L124.097 29.3168L123.253 18.5288L124.854 18.9675Z" fill="white"/>
<path d="M130.738 32.0651L134.713 22.6912L140.59 25.1832L140.074 26.4007L135.611 24.5084L134.4 27.3645L138.556 29.1268L138.042 30.3397L133.886 28.5774L132.669 31.4473L137.187 33.3629L136.67 34.5804L130.738 32.0651Z" fill="white"/>
<path d="M138.912 36.5112L144.101 27.7508L145.423 28.5337L140.908 36.1563L144.877 38.5075L144.203 39.6453L138.912 36.5112Z" fill="white"/>
<path d="M156.618 43.3749C155.944 44.2281 155.209 44.8384 154.412 45.2058C153.617 45.5705 152.818 45.7034 152.013 45.6045C151.213 45.505 150.469 45.1831 149.779 44.6387C149.088 44.0923 148.599 43.4406 148.314 42.6836C148.034 41.926 147.98 41.117 148.153 40.2566C148.326 39.3963 148.748 38.5408 149.42 37.6902C150.093 36.8371 150.828 36.2281 151.622 35.8633C152.419 35.4959 153.218 35.362 154.018 35.4615C154.822 35.5605 155.57 35.8831 156.262 36.4295C156.951 36.9739 157.436 37.6248 157.716 38.3824C158.001 39.1395 158.057 39.9482 157.885 40.8085C157.714 41.6663 157.292 42.5218 156.618 43.3749ZM155.424 42.4321C155.938 41.7818 156.265 41.1511 156.405 40.5399C156.551 39.9282 156.531 39.3641 156.348 38.8476C156.169 38.3306 155.851 37.8913 155.393 37.5298C154.933 37.1662 154.43 36.9574 153.886 36.9034C153.344 36.8468 152.791 36.959 152.227 37.24C151.667 37.5205 151.131 37.9859 150.617 38.6361C150.104 39.2864 149.774 39.9174 149.629 40.5291C149.489 41.1403 149.508 41.7044 149.687 42.2214C149.867 42.7359 150.188 43.1749 150.648 43.5384C151.106 43.9 151.606 44.109 152.148 44.1656C152.695 44.2217 153.249 44.1095 153.808 43.8291C154.372 43.548 154.911 43.0824 155.424 42.4321Z" fill="white"/>
<path d="M155.525 49.118L162.844 42.0397L165.367 44.6485C165.918 45.2179 166.271 45.7898 166.425 46.3643C166.58 46.9388 166.567 47.493 166.387 48.0267C166.209 48.5582 165.896 49.0405 165.448 49.4737C164.998 49.9092 164.502 50.2068 163.96 50.3665C163.423 50.5263 162.868 50.5193 162.294 50.3457C161.725 50.1721 161.166 49.8018 160.618 49.2347L158.883 47.4407L159.819 46.5352L161.457 48.2291C161.805 48.5889 162.15 48.8208 162.49 48.925C162.833 49.0268 163.163 49.0253 163.482 48.9204C163.8 48.8156 164.097 48.6295 164.373 48.3623C164.65 48.095 164.845 47.8052 164.958 47.493C165.071 47.1808 165.078 46.8528 164.981 46.509C164.886 46.1675 164.661 45.8133 164.306 45.4464L162.965 44.0598L156.593 50.2223L155.525 49.118Z" fill="white"/>
<path d="M169.723 49.918L170.78 51.4538L166.097 58.611L166.165 58.7093L174.523 56.8926L175.58 58.4285L167.192 64.2005L166.363 62.9965L172.433 58.8196L172.379 58.7418L164.62 60.4365L163.932 59.4372L168.291 52.7923L168.238 52.7144L162.164 56.8941L161.335 55.6901L169.723 49.918Z" fill="white"/>
<path d="M168.846 67.5222L177.775 62.629L180.843 68.2271L179.683 68.8626L177.354 64.6118L174.633 66.1027L176.803 70.0614L175.647 70.6946L173.478 66.7358L170.744 68.2339L173.103 72.537L171.943 73.1726L168.846 67.5222Z" fill="white"/>
<path d="M184.444 80.3624L174.942 84.0218L174.435 82.7042L179.543 75.1908L179.509 75.1026L172.541 77.7865L171.989 76.3529L181.49 72.6935L182.001 74.0203L176.885 81.542L176.919 81.6301L183.897 78.9427L184.444 80.3624Z" fill="white"/>
<path d="M183.11 84.7515L184.397 84.445L186.223 92.1103L184.937 92.4169L184.201 89.3265L175.582 91.3803L175.228 89.8908L183.846 87.837L183.11 84.7515Z" fill="white"/>
<path d="M176.959 102.624C177.533 102.63 178.001 102.73 178.362 102.925C178.724 103.123 178.987 103.38 179.152 103.697C179.321 104.015 179.399 104.361 179.386 104.735C179.375 105.066 179.293 105.37 179.142 105.647C178.993 105.924 178.754 106.238 178.424 106.588C178.221 106.807 178.072 106.986 177.978 107.125C177.887 107.265 177.839 107.422 177.833 107.598C177.824 107.866 177.916 108.083 178.11 108.249C178.306 108.418 178.602 108.506 178.996 108.512L178.954 109.769C178.377 109.763 177.908 109.661 177.547 109.464C177.185 109.269 176.922 109.012 176.757 108.691C176.591 108.374 176.515 108.03 176.527 107.659C176.539 107.324 176.62 107.018 176.772 106.742C176.927 106.465 177.166 106.153 177.49 105.806C177.7 105.58 177.848 105.4 177.936 105.263C178.027 105.127 178.075 104.971 178.081 104.796C178.089 104.541 178.004 104.325 177.824 104.15C177.647 103.979 177.345 103.889 176.917 103.881L176.959 102.624Z" fill="white"/>
<path d="M176.287 129.661C176.752 129.75 177.165 129.649 177.526 129.358C177.89 129.069 178.158 128.645 178.331 128.088C178.455 127.689 178.498 127.325 178.462 126.994C178.429 126.665 178.328 126.385 178.16 126.156C177.994 125.931 177.773 125.776 177.497 125.69C177.266 125.619 177.05 125.611 176.849 125.666C176.647 125.725 176.461 125.825 176.292 125.967C176.126 126.113 175.972 126.277 175.833 126.46C175.696 126.643 175.574 126.822 175.468 126.997L174.927 127.87C174.754 128.157 174.553 128.443 174.322 128.729C174.091 129.015 173.826 129.264 173.528 129.477C173.229 129.69 172.897 129.833 172.53 129.907C172.163 129.983 171.761 129.954 171.324 129.819C170.773 129.648 170.328 129.354 169.989 128.936C169.649 128.522 169.439 128.007 169.359 127.393C169.278 126.781 169.356 126.095 169.591 125.336C169.817 124.607 170.128 124.013 170.524 123.553C170.92 123.093 171.377 122.778 171.895 122.609C172.415 122.441 172.973 122.432 173.569 122.582L173.112 124.054C172.752 123.974 172.424 123.997 172.128 124.123C171.834 124.254 171.581 124.459 171.37 124.737C171.161 125.019 170.998 125.349 170.881 125.725C170.752 126.14 170.703 126.529 170.733 126.892C170.764 127.259 170.868 127.573 171.045 127.832C171.224 128.093 171.472 128.272 171.789 128.37C172.077 128.459 172.338 128.45 172.573 128.343C172.807 128.238 173.027 128.065 173.234 127.824C173.439 127.586 173.642 127.307 173.842 126.987L174.512 125.935C174.965 125.222 175.469 124.702 176.022 124.374C176.574 124.049 177.188 123.991 177.866 124.201C178.426 124.375 178.868 124.679 179.192 125.112C179.515 125.546 179.712 126.058 179.782 126.649C179.855 127.241 179.791 127.863 179.588 128.515C179.384 129.173 179.088 129.718 178.701 130.15C178.313 130.585 177.871 130.885 177.376 131.05C176.883 131.217 176.374 131.225 175.848 131.076L176.287 129.661Z" fill="white"/>
<path d="M176.23 132.989L177.429 133.546L174.112 140.694L172.913 140.137L174.25 137.255L166.214 133.526L166.858 132.137L174.894 135.866L176.23 132.989Z" fill="white"/>
<path d="M163.427 138.546L172.009 144.025L170.057 147.084C169.632 147.749 169.165 148.227 168.656 148.52C168.145 148.815 167.618 148.942 167.074 148.901C166.532 148.863 165.998 148.675 165.47 148.338C164.944 148.002 164.552 147.597 164.294 147.121C164.036 146.65 163.938 146.123 163.999 145.541C164.058 144.961 164.3 144.339 164.725 143.674L166.204 141.357L167.319 142.068L165.914 144.268C165.647 144.688 165.489 145.067 165.442 145.406C165.392 145.748 165.443 146.054 165.594 146.323C165.744 146.592 165.98 146.829 166.301 147.034C166.626 147.241 166.946 147.358 167.264 147.383C167.58 147.412 167.886 147.334 168.181 147.149C168.477 146.968 168.761 146.664 169.034 146.237L170.072 144.611L162.601 139.841L163.427 138.546ZM164.595 145.255L159.369 144.903L160.311 143.428L165.51 143.821L164.595 145.255Z" fill="white"/>
<path d="M156.889 147.681L157.942 146.436L163.352 155.808L162.206 157.163L152.065 153.388L153.118 152.142L161.339 155.324L161.391 155.263L156.889 147.681ZM159.757 150.464L156.342 154.504L155.355 153.669L158.77 149.63L159.757 150.464Z" fill="white"/>
<path d="M157.417 160.129L158.304 161.11L152.46 166.395L151.573 165.415L153.929 163.284L147.986 156.713L149.122 155.686L155.064 162.256L157.417 160.129Z" fill="white"/>
<path d="M142.13 161.162L147.892 169.556L142.629 173.169L141.881 172.079L145.877 169.335L144.121 166.778L140.4 169.332L139.654 168.246L143.376 165.692L141.612 163.122L137.566 165.899L136.818 164.808L142.13 161.162Z" fill="white"/>
<path d="M130.761 175.484C130.983 175.71 131.22 175.892 131.473 176.032C131.724 176.176 131.987 176.274 132.261 176.325C132.537 176.378 132.822 176.381 133.117 176.332C133.409 176.285 133.706 176.185 134.007 176.033C134.519 175.774 134.914 175.409 135.192 174.938C135.47 174.467 135.601 173.917 135.583 173.287C135.564 172.661 135.369 171.982 134.999 171.248C134.627 170.511 134.192 169.949 133.695 169.562C133.199 169.174 132.675 168.954 132.125 168.901C131.575 168.849 131.034 168.957 130.501 169.226C130.007 169.476 129.628 169.794 129.362 170.18C129.094 170.568 128.952 170.997 128.936 171.465C128.919 171.938 129.037 172.424 129.29 172.924L128.901 173.037L131.501 171.723L132.073 172.855L128.501 174.66L127.979 173.626C127.593 172.863 127.421 172.118 127.462 171.391C127.502 170.669 127.73 170.012 128.147 169.418C128.561 168.827 129.135 168.346 129.869 167.975C130.691 167.559 131.509 167.384 132.321 167.449C133.131 167.515 133.884 167.808 134.582 168.328C135.281 168.852 135.872 169.592 136.356 170.551C136.723 171.276 136.951 171.977 137.041 172.656C137.132 173.334 137.097 173.966 136.936 174.553C136.774 175.143 136.5 175.67 136.113 176.133C135.726 176.6 135.237 176.982 134.649 177.279C134.158 177.528 133.664 177.686 133.168 177.755C132.668 177.825 132.186 177.811 131.72 177.712C131.251 177.615 130.815 177.438 130.41 177.182C130.008 176.929 129.656 176.599 129.355 176.195L130.761 175.484Z" fill="white"/>
<path d="M129.59 179.141L127.942 179.714L123.911 176.214L123.807 176.25L122.813 181.495L121.165 182.067L122.625 175.013L121.314 171.237L122.761 170.735L124.072 174.511L129.59 179.141Z" fill="white"/>
<path d="M105.426 177.029C105.477 177.6 105.424 178.076 105.267 178.455C105.106 178.834 104.876 179.122 104.577 179.318C104.278 179.518 103.942 179.63 103.568 179.655C103.238 179.677 102.927 179.626 102.636 179.503C102.346 179.383 102.01 179.176 101.628 178.883C101.39 178.703 101.197 178.573 101.049 178.493C100.901 178.417 100.739 178.384 100.564 178.396C100.296 178.414 100.09 178.527 99.9442 178.736C99.7957 178.949 99.7379 179.252 99.7709 179.645L98.5159 179.729C98.4641 179.154 98.5185 178.677 98.6792 178.298C98.8365 177.919 99.0664 177.631 99.3688 177.435C99.6679 177.239 100.003 177.128 100.373 177.103C100.707 177.081 101.019 177.131 101.31 177.255C101.601 177.382 101.935 177.588 102.313 177.875C102.558 178.062 102.753 178.191 102.897 178.265C103.042 178.341 103.202 178.374 103.377 178.362C103.632 178.345 103.837 178.238 103.994 178.042C104.147 177.849 104.206 177.539 104.171 177.113L105.426 177.029Z" fill="white"/>
<path d="M84.9384 172.723L86.5364 173.047L80.9177 182.295L79.1784 181.942L77.6158 171.234L79.2138 171.559L80.375 180.298L80.453 180.314L84.9384 172.723ZM83.8762 176.575L78.6925 175.522L78.9499 174.255L84.1337 175.309L83.8762 176.575Z" fill="white"/>
<path d="M64.1908 176.941L67.5307 167.322L68.8645 167.785L71.3041 176.537L71.3934 176.568L73.8428 169.514L75.294 170.018L71.9542 179.636L70.611 179.17L68.1699 170.407L68.0807 170.376L65.628 177.44L64.1908 176.941Z" fill="white"/>
<path d="M63.1234 164.559L64.5788 165.295L56.7165 172.729L55.1324 171.929L56.4542 161.189L57.9096 161.924L56.7208 170.66L56.7918 170.695L63.1234 164.559ZM61.0811 167.994L56.3599 165.609L56.9428 164.455L61.6641 166.841L61.0811 167.994Z" fill="white"/>
<path d="M53.9629 158.528L48.2005 166.922L46.934 166.053L51.9479 158.749L48.1442 156.137L48.8927 155.047L53.9629 158.528Z" fill="white"/>
<path d="M42.095 161.081L40.8008 159.91L41.9329 154.693L41.8518 154.62L36.7744 156.268L35.4802 155.098L42.3683 152.989L45.0496 150.024L46.1852 151.052L43.504 154.016L42.095 161.081Z" fill="white"/>
<path d="M32.8463 146.398C32.5211 146.743 32.384 147.145 32.4348 147.606C32.483 148.068 32.6955 148.522 33.0721 148.968C33.3417 149.287 33.6256 149.52 33.9237 149.667C34.2193 149.817 34.5089 149.882 34.7927 149.863C35.0718 149.844 35.3215 149.742 35.5417 149.556C35.7264 149.4 35.8495 149.222 35.9109 149.022C35.9702 148.82 35.9854 148.61 35.9567 148.391C35.9233 148.172 35.8675 147.954 35.7891 147.739C35.7082 147.525 35.6226 147.326 35.5322 147.142L35.0876 146.216C34.9387 145.916 34.8059 145.592 34.6892 145.244C34.5726 144.896 34.5049 144.538 34.4862 144.172C34.4675 143.806 34.5256 143.449 34.6606 143.1C34.7935 142.749 35.0346 142.426 35.3839 142.131C35.8243 141.758 36.3116 141.542 36.8459 141.481C37.378 141.417 37.9247 141.517 38.4859 141.78C39.045 142.041 39.5813 142.475 40.0948 143.083C40.587 143.665 40.9205 144.247 41.0952 144.828C41.2699 145.409 41.2894 145.964 41.1535 146.491C41.0151 147.02 40.7225 147.496 40.2756 147.917L39.2806 146.74C39.5423 146.479 39.6993 146.19 39.7518 145.873C39.7996 145.554 39.7632 145.231 39.6425 144.904C39.5171 144.576 39.327 144.261 39.0724 143.96C38.7921 143.629 38.4909 143.378 38.1689 143.207C37.8421 143.036 37.522 142.955 37.2085 142.964C36.8924 142.976 36.6078 143.088 36.3547 143.302C36.1244 143.497 35.9914 143.722 35.9559 143.978C35.9182 144.231 35.9455 144.51 36.0376 144.814C36.1276 145.115 36.2536 145.436 36.4156 145.777L36.9418 146.907C37.2986 147.673 37.4666 148.378 37.4457 149.02C37.4226 149.66 37.1403 150.209 36.5986 150.667C36.1506 151.046 35.6569 151.255 35.1174 151.295C34.5778 151.334 34.0402 151.224 33.5045 150.966C32.9663 150.709 32.4768 150.32 32.0359 149.798C31.5909 149.272 31.2906 148.729 31.1351 148.171C30.9775 147.61 30.9622 147.076 31.0893 146.569C31.2139 146.064 31.4807 145.63 31.8898 145.267L32.8463 146.398Z" fill="white"/>
<path d="M26.3277 141.371L34.9099 135.893L35.7365 137.187L27.1543 142.666L26.3277 141.371Z" fill="white"/>
<path d="M24.1878 130.421C23.7832 130.667 23.5446 131.019 23.4719 131.477C23.3962 131.936 23.4812 132.43 23.7267 132.959C23.9025 133.338 24.1147 133.638 24.3633 133.858C24.6089 134.081 24.871 134.22 25.1496 134.277C25.4238 134.333 25.6917 134.3 25.9533 134.178C26.1727 134.077 26.3384 133.938 26.4503 133.761C26.5608 133.582 26.6312 133.383 26.6613 133.165C26.687 132.945 26.6905 132.72 26.672 132.491C26.6505 132.264 26.6204 132.049 26.5818 131.848L26.3978 130.837C26.3332 130.509 26.2907 130.162 26.2703 129.795C26.2498 129.428 26.2789 129.065 26.3576 128.707C26.4362 128.349 26.5867 128.02 26.809 127.72C27.0299 127.416 27.3478 127.168 27.7627 126.976C28.2859 126.733 28.8131 126.653 29.3446 126.735C29.8746 126.814 30.3755 127.055 30.8471 127.457C31.3174 127.856 31.72 128.417 32.0548 129.138C32.3757 129.83 32.5436 130.479 32.5585 131.086C32.5734 131.693 32.4457 132.233 32.1754 132.705C31.9021 133.179 31.4943 133.56 30.952 133.848L30.3033 132.45C30.6244 132.268 30.8523 132.031 30.9869 131.738C31.1171 131.444 31.1672 131.123 31.1373 130.775C31.1031 130.426 31.0029 130.072 30.8369 129.714C30.6541 129.321 30.4299 128.999 30.1644 128.749C29.8944 128.498 29.607 128.336 29.3022 128.262C28.9944 128.189 28.6902 128.222 28.3896 128.362C28.116 128.489 27.9283 128.671 27.8264 128.908C27.7232 129.142 27.6759 129.418 27.6844 129.736C27.6915 130.05 27.7282 130.393 27.7945 130.764L28.0033 131.994C28.1451 132.827 28.121 133.551 27.9311 134.165C27.7397 134.776 27.3224 135.231 26.679 135.53C26.1469 135.777 25.6154 135.848 25.0846 135.743C24.5538 135.639 24.0643 135.391 23.616 135C23.1647 134.61 22.7954 134.106 22.508 133.486C22.2178 132.861 22.0715 132.258 22.0692 131.678C22.0654 131.096 22.1918 130.577 22.4483 130.121C22.7017 129.668 23.0737 129.32 23.5642 129.077L24.1878 130.421Z" fill="white"/>
<path d="M24.2322 113.304C23.669 113.412 23.1908 113.407 22.7977 113.289C22.4041 113.167 22.0948 112.967 21.8697 112.689C21.6414 112.411 21.4961 112.088 21.4338 111.719C21.3787 111.392 21.398 111.078 21.4916 110.776C21.5821 110.475 21.7541 110.12 22.0077 109.711C22.1631 109.456 22.273 109.251 22.3376 109.096C22.3988 108.941 22.4149 108.777 22.3856 108.604C22.341 108.339 22.2074 108.145 21.9848 108.021C21.7584 107.894 21.4514 107.867 21.0635 107.939L20.8543 106.699C21.4208 106.59 21.9008 106.596 22.2945 106.718C22.6876 106.837 22.9969 107.037 23.2225 107.318C23.4475 107.596 23.5909 107.918 23.6527 108.284C23.7084 108.614 23.6894 108.93 23.5957 109.231C23.4987 109.534 23.3264 109.887 23.0788 110.292C22.918 110.554 22.8083 110.761 22.7498 110.912C22.688 111.064 22.6717 111.226 22.7009 111.399C22.7433 111.651 22.8701 111.845 23.0812 111.98C23.2886 112.113 23.6025 112.141 24.023 112.064L24.2322 113.304Z" fill="white"/>
<path d="M16.2434 96.3889L16.43 94.534L24.6295 92.101L24.6414 91.9823L17.0909 87.9649L17.2775 86.1099L27.4082 87.129L27.2619 88.5833L19.931 87.8458L19.9215 87.9398L26.937 91.6636L26.8156 92.8706L19.194 95.1218L19.1845 95.2158L26.5204 95.9538L26.3741 97.4081L16.2434 96.3889Z" fill="white"/>
<path d="M28.9582 82.6071L28.5802 84.1933L19.5251 78.2687L19.9366 76.5422L30.6904 75.3383L30.3124 76.9246L21.5397 77.7931L21.5213 77.8705L28.9582 82.6071ZM25.143 81.4168L26.3693 76.2711L27.6267 76.5708L26.4004 81.7164L25.143 81.4168Z" fill="white"/>
<path d="M33.3386 72.4103L23.8371 68.7509L25.1415 65.3641C25.425 64.628 25.7871 64.066 26.2277 63.6781C26.6695 63.2871 27.1612 63.0573 27.7025 62.9888C28.2408 62.9191 28.8023 62.9968 29.3868 63.222C29.9683 63.4459 30.4331 63.7652 30.7813 64.1799C31.1276 64.5903 31.3288 65.0869 31.3849 65.6697C31.4422 66.2494 31.3292 66.9073 31.0456 67.6434L30.0575 70.209L28.8235 69.7337L29.7615 67.298C29.9402 66.8341 30.019 66.4311 29.998 66.0892C29.9782 65.7441 29.8677 65.4547 29.6665 65.2209C29.4653 64.9872 29.1868 64.8018 28.8311 64.6648C28.4724 64.5266 28.1347 64.4765 27.8182 64.5144C27.5029 64.5493 27.2191 64.6868 26.9667 64.927C26.7125 65.163 26.4942 65.5175 26.312 65.9907L25.6187 67.7908L33.8907 70.9767L33.3386 72.4103ZM30.8583 66.0689L36.0492 65.3724L35.4202 67.0054L30.2472 67.6555L30.8583 66.0689Z" fill="white"/>
<path d="M37.634 62.6856L28.7051 57.7924L29.4434 56.4452L33.7073 58.7819L33.767 58.6729L31.5555 52.5911L32.4849 50.8952L34.5311 56.6993L41.421 55.7753L40.5322 57.3971L34.9613 58.0972L35.5951 59.8165L38.3723 61.3384L37.634 62.6856Z" fill="white"/>
<path d="M43.3461 53.5743L35.1491 47.5346L38.9356 42.3954L40.0003 43.1799L37.125 47.0823L39.6225 48.9225L42.3003 45.2883L43.3609 46.0698L40.6832 49.704L43.1927 51.5531L46.1034 47.6026L47.1681 48.3871L43.3461 53.5743Z" fill="white"/>
<path d="M42.8333 41.4014L41.8827 40.4821L47.3608 34.8178L48.3114 35.7371L46.1028 38.0207L52.4712 44.1797L51.4066 45.2804L45.0383 39.1214L42.8333 41.4014Z" fill="white"/>
<path d="M52.0155 31.3281L58.3256 39.3188L57.12 40.2709L50.8098 32.2802L52.0155 31.3281Z" fill="white"/>
<path d="M63.9175 23.8427L69.1064 32.6031L67.8915 33.3227L59.6331 29.5352L59.5518 29.5834L63.3573 36.0083L62.0355 36.7912L56.8467 28.0307L58.0701 27.3061L66.3379 31.0995L66.4191 31.0514L62.6086 24.6179L63.9175 23.8427Z" fill="white"/>
<path d="M74.4492 23.1947C74.2429 22.9545 74.0185 22.7563 73.7758 22.6C73.5349 22.4394 73.2792 22.3246 73.0088 22.2557C72.7371 22.1837 72.4525 22.1621 72.1552 22.191C71.8609 22.2186 71.5581 22.2984 71.2468 22.4304C70.7189 22.6542 70.3005 22.9919 69.9915 23.4433C69.6825 23.8947 69.5157 24.4352 69.4911 25.0649C69.4683 25.6902 69.6173 26.3812 69.9382 27.138C70.2604 27.8978 70.6563 28.4877 71.126 28.9077C71.5957 29.3277 72.1033 29.5823 72.6487 29.6715C73.1941 29.7606 73.7414 29.6887 74.2907 29.4558C74.8003 29.2397 75.2002 28.9477 75.4906 28.5798C75.7841 28.2105 75.9543 27.7927 76.0014 27.3264C76.0502 26.8557 75.9652 26.3625 75.7466 25.8468L76.1419 25.7602L73.4597 26.8975L72.9648 25.7304L76.6493 24.168L77.1015 25.2345C77.4354 26.0217 77.5574 26.7764 77.4676 27.4985C77.3795 28.2162 77.1077 28.8571 76.652 29.4211C76.1994 29.9839 75.5947 30.4257 74.838 30.7466C73.9897 31.1063 73.1624 31.2267 72.3559 31.1078C71.5526 30.9877 70.8204 30.6447 70.1593 30.0791C69.4969 29.5103 68.9561 28.7316 68.5369 27.743C68.2199 26.9954 68.039 26.2801 67.9942 25.5971C67.9493 24.9141 68.0266 24.2855 68.226 23.7113C68.4271 23.1329 68.7358 22.6257 69.1523 22.1899C69.5704 21.7498 70.0831 21.401 70.6904 21.1435C71.1969 20.9287 71.7 20.8036 72.1998 20.7681C72.7026 20.7313 73.1831 20.7777 73.6413 20.9074C74.1026 21.0358 74.5263 21.2414 74.9126 21.524C75.2975 21.8036 75.6267 22.1554 75.9001 22.5794L74.4492 23.1947Z" fill="white"/>
<path d="M85.578 24.0661C85.4884 23.4996 85.5095 23.0218 85.6411 22.6329C85.776 22.2436 85.9862 21.9411 86.2715 21.7255C86.5564 21.5066 86.8845 21.3722 87.2557 21.3222C87.5842 21.2781 87.8975 21.3078 88.1957 21.4115C88.4935 21.5119 88.8426 21.6957 89.243 21.9629C89.4925 22.1267 89.6938 22.2434 89.8469 22.3131C89.9997 22.3795 90.1631 22.401 90.3372 22.3776C90.6033 22.3418 90.8019 22.2148 90.933 21.9965C91.067 21.7745 91.1045 21.4685 91.0453 21.0784L92.2919 20.9108C92.3819 21.4806 92.3595 21.9602 92.2246 22.3495C92.0929 22.7384 91.8828 23.0409 91.5942 23.257C91.3088 23.4726 90.9822 23.6051 90.6143 23.6546C90.2825 23.6992 89.9675 23.6697 89.6693 23.566C89.3707 23.459 89.0232 23.275 88.6269 23.0139C88.37 22.8445 88.1671 22.728 88.0181 22.6644C87.8686 22.5976 87.7069 22.5758 87.5328 22.5993C87.2798 22.6333 87.082 22.7535 86.9392 22.96C86.7992 23.1628 86.761 23.4756 86.8246 23.8984L85.578 24.0661Z" fill="white"/>
</svg>
