<svg width="170" height="44" viewBox="0 0 170 44" fill="none" xmlns="http://www.w3.org/2000/svg">
<g clip-path="url(#clip0_2838_934)">
<path fill-rule="evenodd" clip-rule="evenodd" d="M150.602 0.234839C140.866 0.866032 118.515 2.93995 108.093 4.20234C63.7573 9.56749 42.9148 12.3627 21.9351 15.7441C4.97762 18.4944 2.82936 19.0354 2.23516 20.6134C1.96092 21.2896 1.36672 22.6873 0.81823 23.7693C-0.0502122 25.5276 -0.0959194 26.2941 0.0869101 32.1101C0.26974 37.8359 0.45257 38.7376 1.50384 40.7664C2.14375 42.0288 2.96648 43.2912 3.28643 43.5618C4.79478 44.779 10.2797 43.3363 25.5917 40.7664C44.1946 37.6556 56.6269 35.8973 85.0114 32.3806C124.822 27.4663 135.93 26.79 150.83 26.0687C156.224 25.8432 160.84 25.6178 161.114 25.3924C161.388 25.212 162.851 25.167 163.857 24.9866C168.29 24.2202 168.976 23.9046 169.022 22.5971C169.022 21.9208 168.793 21.0642 168.519 20.7486C168.108 20.2977 168.199 19.9822 168.702 19.6215C169.433 19.0805 169.616 15.5187 168.976 14.5269C168.793 14.2112 168.976 13.7604 169.433 13.4899C170.165 13.0841 170.165 12.9489 169.57 12.5882C169.067 12.2726 169.067 12.1374 169.479 12.1374C169.89 12.0922 170.027 11.5061 169.936 10.0634C169.844 8.98139 169.616 8.03458 169.433 8.03458C169.204 8.03458 169.204 7.85422 169.341 7.58371C169.479 7.35828 169.433 7.13289 169.159 7.13289C168.427 7.13289 168.016 5.2844 168.656 4.87861C169.341 4.47285 168.884 3.52606 168.016 3.52606C167.696 3.52606 167.147 2.98504 166.782 2.35384C165.731 0.460267 163.811 -0.0807575 158.052 0.00941314C155.218 0.0544985 151.836 0.144669 150.602 0.234839Z" fill="#42F1F1"/>
</g>
<defs>
<clipPath id="clip0_2838_934">
<rect width="170" height="44" fill="white"/>
</clipPath>
</defs>
</svg>
